<?xml version="1.0" encoding="UTF-8"?>
<svg xmlns="http://www.w3.org/2000/svg" width="64" height="64" viewBox="0 0 64 64" fill="none">
<path d="M4.7793 52.5064H8.6208L7.2075 49.3652C7.1272 49.1661 7.0405 48.9348 6.9538 48.6746C6.8671 48.4145 6.7771 48.1254 6.6904 47.8042C6.6165 48.1061 6.5362 48.3856 6.4495 48.6457C6.366 48.9059 6.2793 49.1468 6.1926 49.3652L4.7793 52.5064ZM10.9719 57.9217L9.4109 54.3758H3.9507L2.3511 57.9217H0L6.6711 43.603L13.3358 57.9217H10.9719ZM55.1129 52.5064H58.9544L57.5411 49.3652C57.4608 49.1661 57.3741 48.9348 57.2874 48.6746C57.2007 48.4145 57.1107 48.1254 57.024 47.8042C56.9501 48.1061 56.8698 48.3856 56.7831 48.6457C56.6996 48.9059 56.6129 49.1468 56.5262 49.3652L55.1129 52.5064ZM61.3055 57.9217L59.7445 54.3758H54.2843L52.6847 57.9217H50.3336L57.0047 43.603L63.6694 57.9217H61.3055ZM29.1737 49.3845C29.8835 49.3202 30.5323 49.2881 31.1201 49.2881C32.7325 49.2881 33.9787 49.6543 34.862 50.3898C35.7453 51.1221 36.1885 52.1756 36.1885 53.5471C36.1885 54.9089 35.7356 55.9785 34.8331 56.7558C33.9305 57.5331 32.7486 57.9217 31.2839 57.9217H27.2851V44.1426H29.1737V49.3845ZM29.1737 56.3222C29.7005 56.3864 30.2722 56.4185 30.8857 56.4185C33.0987 56.4185 34.2035 55.4485 34.2035 53.5118C34.2035 52.6381 33.9305 51.9733 33.3813 51.5172C32.8321 51.0579 32.0419 50.8298 31.0077 50.8298C30.3557 50.8298 29.7454 50.8619 29.1737 50.9262V56.3222ZM45.018 45.4531C46.6657 45.527 47.9954 46.0666 49.0007 47.0687C50.0061 48.0676 50.5103 49.3202 50.5103 50.8266C50.5103 52.3651 50.0157 53.6659 49.0232 54.7291C48.0339 55.7922 46.6978 56.3639 45.018 56.4378V58.1144H43.1679V56.4378C41.5234 56.3639 40.1969 55.8211 39.1884 54.8094C38.1798 53.7976 37.6756 52.5386 37.6756 51.0258C37.6756 49.4937 38.1702 48.2025 39.1595 47.1458C40.1487 46.0923 41.4849 45.527 43.1679 45.4531V43.8536H45.018V45.4531ZM44.9987 54.9924C46.155 54.9411 47.0543 54.5396 47.7063 53.7816C48.3551 53.0268 48.6795 52.06 48.6795 50.878C48.6795 49.7635 48.3519 48.832 47.6999 48.0837C47.0479 47.3385 46.1486 46.9434 44.9987 46.8985V54.9924ZM43.1872 54.9924V46.8985C42.0341 46.9434 41.1316 47.3385 40.4796 48.0837C39.8308 48.832 39.5064 49.7924 39.5064 50.9647C39.5064 52.0889 39.834 53.0268 40.486 53.7816C41.138 54.5396 42.0373 54.9411 43.1872 54.9924Z" fill="white"/>
<path d="M19.9841 43.573L26.1427 57.9099H23.8111L20.7205 50.5581C20.5372 50.1336 20.386 49.7381 20.2671 49.3779C20.1481 49.0145 20.0548 48.6703 19.9841 48.3455C19.9037 48.6896 19.8007 49.0466 19.6753 49.4197C19.5499 49.7895 19.402 50.169 19.2315 50.5581L16.1506 57.9099H13.8319L19.9841 43.573Z" fill="white"/>
<path fill-rule="evenodd" clip-rule="evenodd" d="M57.9827 39.6292L30.4373 0L2.69812 41.8587L39.6964 32.9094L34.7804 25.8796L21.5722 29.6066L30.5037 15.5647L47.5123 40.0525L57.9827 39.6292Z" fill="white"/>
</svg>